<?xml version="1.0" encoding="iso-8859-1"?>
<!-- Uploaded to: SVG Repo, www.svgrepo.com, Generator: SVG Repo Mixer Tools -->
<svg fill="#000000" height="800px" width="800px" version="1.1" id="Layer_1" xmlns="http://www.w3.org/2000/svg" xmlns:xlink="http://www.w3.org/1999/xlink" 
	 viewBox="0 0 512 512" xml:space="preserve">
<g>
	<g>
		<path d="M510.911,347.243l-56.306-97.82h13.821c2.917,0,5.612-1.556,7.073-4.081c1.46-2.525,1.463-5.637,0.008-8.166
			l-56.306-97.82h13.821c2.917,0,5.612-1.556,7.073-4.081c1.46-2.525,1.463-5.637,0.008-8.166L369.294,4.094
			C367.836,1.561,365.136,0,362.213,0s-5.623,1.561-7.081,4.094l-70.808,123.015c-1.455,2.528-1.452,5.641,0.008,8.166
			c1.461,2.526,4.156,4.081,7.073,4.081h13.821l-5.012,8.707c-2.251,3.911-0.906,8.906,3.004,11.157
			c3.91,2.25,8.906,0.905,11.157-3.004l12.061-20.954c1.455-2.528,1.452-5.641-0.008-8.166c-1.46-2.525-4.156-4.081-7.073-4.081
			h-13.821l56.678-98.467l56.678,98.467H405.07c-2.917,0-5.612,1.556-7.073,4.081c-1.46,2.525-1.463,5.637-0.008,8.166
			l56.306,97.821h-13.821c-2.917,0-5.612,1.556-7.073,4.081c-1.46,2.525-1.463,5.637-0.008,8.166l56.306,97.819h-94.806
			c-4.512,0-8.17,3.658-8.17,8.17s3.658,8.17,8.17,8.17H503.83c2.917,0,5.612-1.556,7.073-4.081
			C512.363,352.883,512.366,349.771,510.911,347.243z"/>
	</g>
</g>
<g>
	<g>
		<path d="M503.83,408.511H370.383V273.002l7.84,7.84c1.595,1.595,3.686,2.393,5.777,2.393s4.182-0.797,5.777-2.393
			c3.191-3.191,3.191-8.364,0-11.554L201.862,81.373c-3.191-3.191-8.364-3.191-11.554,0l-51.595,51.595v-45.82
			c0-4.512-3.658-8.17-8.17-8.17H92.415c-4.512,0-8.17,3.658-8.17,8.17v100.287L2.393,269.287c-3.191,3.191-3.191,8.364,0,11.554
			c3.191,3.191,8.364,3.191,11.554,0l7.84-7.839v135.509H8.17c-4.512,0-8.17,3.658-8.17,8.17s3.658,8.17,8.17,8.17h495.66
			c4.512,0,8.17-3.658,8.17-8.17S508.342,408.511,503.83,408.511z M100.585,95.319h21.787v53.989l-21.787,21.787V95.319z
			 M98.185,196.604c0.013-0.013,97.9-97.9,97.9-97.9l146.404,146.403H49.683L98.185,196.604z M136.17,408.511H38.128v-16.34h98.043
			V408.511z M136.17,375.83H38.128v-16.34h98.043V375.83z M136.17,310.468h-32.681c-4.512,0-8.17,3.658-8.17,8.17
			s3.658,8.17,8.17,8.17h32.681v16.34H38.128v-16.34h32.681c4.512,0,8.17-3.658,8.17-8.17s-3.658-8.17-8.17-8.17H38.128v-16.34
			h98.043V310.468z M136.17,277.787H38.128v-16.34h98.043V277.787z M239.66,351.308c0,0.022,0,32.681,0,32.681
			c0,0.022,0,24.522,0,24.522h-87.149v-89.861c0-0.022,0-32.681,0-32.681c0-0.022,0-24.522,0-24.522h87.149V351.308z
			 M354.043,375.83h-32.681c-4.512,0-8.17,3.658-8.17,8.17s3.658,8.17,8.17,8.17h32.681v16.34H256v-16.34h32.681
			c4.512,0,8.17-3.658,8.17-8.17s-3.658-8.17-8.17-8.17H256v-16.34h98.043V375.83z M354.043,343.149H256v-16.34h98.043V343.149z
			 M354.043,310.468H256v-16.34h98.043V310.468z M354.043,277.787H256v-16.34h98.043V277.787z"/>
	</g>
</g>
<g>
	<g>
		<path d="M40.851,441.191c-4.512,0-8.17,3.658-8.17,8.17v10.894c0,4.512,3.658,8.17,8.17,8.17s8.17-3.658,8.17-8.17v-10.894
			C49.021,444.85,45.363,441.191,40.851,441.191z"/>
	</g>
</g>
<g>
	<g>
		<path d="M73.532,484.766c-4.512,0-8.17,3.658-8.17,8.17v10.894c0,4.512,3.658,8.17,8.17,8.17s8.17-3.658,8.17-8.17v-10.894
			C81.702,488.424,78.044,484.766,73.532,484.766z"/>
	</g>
</g>
<g>
	<g>
		<path d="M106.213,462.979c-4.512,0-8.17,3.658-8.17,8.17v10.894c0,4.512,3.658,8.17,8.17,8.17s8.17-3.658,8.17-8.17v-10.894
			C114.383,466.637,110.725,462.979,106.213,462.979z"/>
	</g>
</g>
<g>
	<g>
		<path d="M471.149,441.191c-4.512,0-8.17,3.658-8.17,8.17v10.894c0,4.512,3.658,8.17,8.17,8.17s8.17-3.658,8.17-8.17v-10.894
			C479.319,444.85,475.661,441.191,471.149,441.191z"/>
	</g>
</g>
<g>
	<g>
		<path d="M318.638,484.766c-4.512,0-8.17,3.658-8.17,8.17v10.894c0,4.512,3.658,8.17,8.17,8.17s8.17-3.658,8.17-8.17v-10.894
			C326.809,488.424,323.15,484.766,318.638,484.766z"/>
	</g>
</g>
<g>
	<g>
		<path d="M351.319,462.979c-4.512,0-8.17,3.658-8.17,8.17v10.894c0,4.512,3.658,8.17,8.17,8.17s8.17-3.658,8.17-8.17v-10.894
			C359.489,466.637,355.831,462.979,351.319,462.979z"/>
	</g>
</g>
<g>
	<g>
		<path d="M198.809,462.979c-4.512,0-8.17,3.658-8.17,8.17v10.894c0,4.512,3.658,8.17,8.17,8.17s8.17-3.658,8.17-8.17v-10.894
			C206.979,466.637,203.321,462.979,198.809,462.979z"/>
	</g>
</g>
</svg>